<svg width="32" height="23" viewBox="0 0 32 23" fill="none" xmlns="http://www.w3.org/2000/svg">
<path fill-rule="evenodd" clip-rule="evenodd" d="M28.5027 0.668581C29.8823 1.04115 30.9666 2.12823 31.3331 3.50622C32 6.00702 32 11.2281 32 11.2281C32 11.2281 32 16.4491 31.3331 18.9499C30.9615 20.333 29.8772 21.4201 28.5027 21.7876C26.0083 22.4561 16 22.4561 16 22.4561C16 22.4561 5.99682 22.4561 3.4973 21.7876C2.11772 21.415 1.03341 20.3279 0.666879 18.9499C0 16.4491 0 11.2281 0 11.2281C0 11.2281 0 6.00702 0.666879 3.50622C1.0385 2.12313 2.12281 1.03605 3.4973 0.668581C5.99682 0 16 0 16 0C16 0 26.0083 0 28.5027 0.668581ZM21.1161 11.2281L12.8031 16.0408V6.41531L21.1161 11.2281Z" fill="black"/>
</svg>
