<svg width="239" height="111" viewBox="0 0 239 111" fill="none" xmlns="http://www.w3.org/2000/svg">
<path d="M37.6419 77.0975C38.1823 77.6599 38.9734 77.9833 39.8101 77.9833L85.8347 77.9833C86.6768 77.9833 87.4706 77.6575 88.0109 77.0891C88.5486 76.5255 88.7766 75.7859 88.6385 75.0606L85.596 59.1505L85.596 35.7266C85.596 33.7421 83.763 32.1285 81.5103 32.1285L43.9897 32.1285C41.737 32.1285 39.904 33.7421 39.904 35.7266L39.904 59.1576L37.0037 75.0796C36.8722 75.8038 37.1056 76.5386 37.6419 77.0975ZM42.4462 60.4733L50.7784 60.4733L50.1207 66.3888L41.3687 66.3888L42.4462 60.4733ZM53.5375 60.4733L61.5284 60.4733L61.5284 66.3888L52.8798 66.3888L53.5375 60.4733ZM61.5284 68.824L61.5284 75.5055L51.8681 75.4886L52.609 68.824L61.5284 68.824ZM64.2746 68.824L73.1926 68.824L73.9379 75.5272L64.2746 75.5103L64.2746 68.824ZM64.2746 66.3888L64.2746 60.4733L72.2642 60.4733L72.9219 66.3888L64.2746 66.3888ZM75.0233 60.4733L83.0556 60.4733L84.1462 66.3888L75.681 66.3888L75.0233 60.4733ZM82.8499 58.0381L42.6501 58.0381L42.6501 40.9834L82.8499 40.9834L82.8499 58.0381ZM39.7149 75.4673L40.9251 68.824L49.8499 68.824L49.1094 75.4838L39.7149 75.4673ZM76.6976 75.5321L75.9518 68.824L84.5951 68.824L85.8347 75.5481L76.6976 75.5321ZM43.9897 34.5637L81.5103 34.5637C82.2491 34.5637 82.8499 35.0857 82.8499 35.7266L82.8499 38.5483L42.6501 38.5483L42.6501 35.7266C42.6501 35.0857 43.2508 34.5637 43.9897 34.5637Z" fill="#380694"/>
<path d="M37.6419 77.0975C38.1823 77.6599 38.9734 77.9833 39.8101 77.9833L85.8347 77.9833C86.6768 77.9833 87.4706 77.6575 88.0109 77.0891C88.5486 76.5255 88.7766 75.7859 88.6385 75.0606L85.596 59.1505L85.596 35.7266C85.596 33.7421 83.763 32.1285 81.5103 32.1285L43.9897 32.1285C41.737 32.1285 39.904 33.7421 39.904 35.7266L39.904 59.1576L37.0037 75.0796C36.8722 75.8038 37.1056 76.5386 37.6419 77.0975ZM42.4462 60.4733L50.7784 60.4733L50.1207 66.3888L41.3687 66.3888L42.4462 60.4733ZM53.5375 60.4733L61.5284 60.4733L61.5284 66.3888L52.8798 66.3888L53.5375 60.4733ZM61.5284 68.824L61.5284 75.5055L51.8681 75.4886L52.609 68.824L61.5284 68.824ZM64.2746 68.824L73.1926 68.824L73.9379 75.5272L64.2746 75.5103L64.2746 68.824ZM64.2746 66.3888L64.2746 60.4733L72.2642 60.4733L72.9219 66.3888L64.2746 66.3888ZM75.0233 60.4733L83.0556 60.4733L84.1462 66.3888L75.681 66.3888L75.0233 60.4733ZM82.8499 58.0381L42.6501 58.0381L42.6501 40.9834L82.8499 40.9834L82.8499 58.0381ZM39.7149 75.4673L40.9251 68.824L49.8499 68.824L49.1094 75.4838L39.7149 75.4673ZM76.6976 75.5321L75.9518 68.824L84.5951 68.824L85.8347 75.5481L76.6976 75.5321ZM43.9897 34.5637L81.5103 34.5637C82.2491 34.5637 82.8499 35.0857 82.8499 35.7266L82.8499 38.5483L42.6501 38.5483L42.6501 35.7266C42.6501 35.0857 43.2508 34.5637 43.9897 34.5637Z" fill="#380694"/>
<path d="M37.6419 77.0975C38.1823 77.6599 38.9734 77.9833 39.8101 77.9833L85.8347 77.9833C86.6768 77.9833 87.4706 77.6575 88.0109 77.0891C88.5486 76.5255 88.7766 75.7859 88.6385 75.0606L85.596 59.1505L85.596 35.7266C85.596 33.7421 83.763 32.1285 81.5103 32.1285L43.9897 32.1285C41.737 32.1285 39.904 33.7421 39.904 35.7266L39.904 59.1576L37.0037 75.0796C36.8722 75.8038 37.1056 76.5386 37.6419 77.0975ZM42.4462 60.4733L50.7784 60.4733L50.1207 66.3888L41.3687 66.3888L42.4462 60.4733ZM53.5375 60.4733L61.5284 60.4733L61.5284 66.3888L52.8798 66.3888L53.5375 60.4733ZM61.5284 68.824L61.5284 75.5055L51.8681 75.4886L52.609 68.824L61.5284 68.824ZM64.2746 68.824L73.1926 68.824L73.9379 75.5272L64.2746 75.5103L64.2746 68.824ZM64.2746 66.3888L64.2746 60.4733L72.2642 60.4733L72.9219 66.3888L64.2746 66.3888ZM75.0233 60.4733L83.0556 60.4733L84.1462 66.3888L75.681 66.3888L75.0233 60.4733ZM82.8499 58.0381L42.6501 58.0381L42.6501 40.9834L82.8499 40.9834L82.8499 58.0381ZM39.7149 75.4673L40.9251 68.824L49.8499 68.824L49.1094 75.4838L39.7149 75.4673ZM76.6976 75.5321L75.9518 68.824L84.5951 68.824L85.8347 75.5481L76.6976 75.5321ZM43.9897 34.5637L81.5103 34.5637C82.2491 34.5637 82.8499 35.0857 82.8499 35.7266L82.8499 38.5483L42.6501 38.5483L42.6501 35.7266C42.6501 35.0857 43.2508 34.5637 43.9897 34.5637Z" fill="#380694"/>
<path d="M72.3328 8.91329C72.3137 4.08266 67.8479 0.166731 62.3764 0.18418C56.9048 0.201628 52.47 4.14594 52.4891 8.97657C52.5082 13.8059 56.974 17.7218 62.4455 17.7043C67.9171 17.6869 72.3518 13.7426 72.3328 8.91329ZM55.6061 8.96663C55.5931 5.66026 58.6356 2.96113 62.3873 2.94917C66.139 2.93721 69.2027 5.61686 69.2158 8.92323C69.2288 12.2283 66.1863 14.9274 62.4346 14.9393C58.6829 14.9513 55.6192 12.2717 55.6061 8.96663Z" fill="#450694"/>
<path d="M109.477 22.4582C109.46 20.1131 108.417 17.9104 106.537 16.2557C104.658 14.5997 102.167 13.6896 99.5238 13.6913C99.5146 13.6913 99.5055 13.6913 99.4949 13.6914C96.8603 13.6998 94.3907 14.6149 92.5373 16.2707C90.6779 17.9318 89.6623 20.1398 89.6792 22.4862C89.696 24.8313 90.7397 27.0341 92.6198 28.6887C94.4984 30.3447 96.9889 31.2549 99.6327 31.2532C99.6418 31.2532 99.6509 31.2531 99.6616 31.2531C102.296 31.2447 104.766 30.3295 106.619 28.6738C108.479 27.0126 109.494 24.8047 109.477 22.4582ZM104.408 26.7259C101.782 29.0713 97.4811 29.0742 94.8159 26.7268C92.1538 24.3807 92.1235 20.564 94.7489 18.2186C96.0562 17.0506 97.7783 16.4646 99.5073 16.4591C101.251 16.4535 103.003 17.0393 104.341 18.2177C107.003 20.5638 107.033 24.3805 104.408 26.7259Z" fill="#450694"/>
<path d="M115.026 46.546C109.582 46.5634 105.167 50.5252 105.186 55.3788C105.205 60.2324 109.651 64.166 115.095 64.1486C120.541 64.1312 124.956 60.1694 124.937 55.3158C124.917 50.4622 120.471 46.5287 115.026 46.546ZM115.084 61.3836C111.358 61.3955 108.316 58.6968 108.303 55.3689C108.29 52.0409 111.311 49.3229 115.037 49.311C118.764 49.2991 121.806 51.9978 121.82 55.3258C121.833 58.6537 118.812 61.3717 115.084 61.3836Z" fill="#450694"/>
<path d="M99.8041 79.5308C99.7934 79.5308 99.7843 79.5308 99.7751 79.5309C97.1315 79.5461 94.6482 80.472 92.7827 82.14C90.9157 83.8066 89.8894 86.0159 89.8911 88.3611C89.8927 90.7076 90.9257 92.909 92.7982 94.5583C94.6646 96.2022 97.1414 97.1015 99.776 97.0931C99.7866 97.0931 99.7957 97.0931 99.8049 97.093C102.449 97.0779 104.932 96.1519 106.797 94.4839C108.664 92.8173 109.691 90.608 109.689 88.2628C109.687 85.9163 108.654 83.7149 106.782 82.0656C104.915 80.4218 102.439 79.5224 99.8041 79.5308ZM104.586 92.536C101.939 94.899 97.6381 94.9263 94.9943 92.5963C92.3506 90.2677 92.3507 86.4509 94.9942 84.0879C96.3228 82.901 98.0693 82.304 99.8135 82.2985C101.542 82.293 103.269 82.868 104.586 84.0276C107.229 86.3562 107.229 90.173 104.586 92.536Z" fill="#450694"/>
<path d="M52.7887 102.087C52.8077 106.917 57.2735 110.833 62.7451 110.816C68.2166 110.798 72.6514 106.854 72.6323 102.024C72.6133 97.1942 68.1475 93.2783 62.6759 93.2958C57.2044 93.3132 52.7696 97.2575 52.7887 102.087ZM69.5153 102.033C69.5284 105.34 66.4859 108.039 62.7342 108.051C58.9825 108.063 55.9187 105.383 55.9057 102.077C55.8926 98.7718 58.9351 96.0727 62.6868 96.0607C66.4385 96.0488 69.5023 98.7284 69.5153 102.033Z" fill="#450694"/>
<path d="M15.6442 88.5418C15.6611 90.8869 16.7048 93.0896 18.5849 94.7443C20.4635 96.4003 22.954 97.3104 25.5977 97.3087C25.6069 97.3087 25.616 97.3087 25.6267 97.3086C28.2612 97.3002 30.7309 96.3851 32.5842 94.7293C34.4436 93.0682 35.4592 90.8602 35.4424 88.5138C35.4255 86.1687 34.3818 83.9659 32.5017 82.3113C30.6231 80.6553 28.1326 79.7451 25.4889 79.7468C25.4797 79.7468 25.4706 79.7469 25.4599 79.7469C22.8254 79.7553 20.3557 80.6705 18.5024 82.3262C16.643 83.9874 15.6274 86.1953 15.6442 88.5418ZM20.7139 84.2741C22.0213 83.1062 23.7434 82.5201 25.4724 82.5146C27.2166 82.509 28.9677 83.0948 30.3056 84.2732C32.9677 86.6193 32.998 90.436 30.3727 92.7814C27.7458 95.1282 23.4446 95.1284 20.781 92.7823C18.1189 90.4362 18.0886 86.6195 20.7139 84.2741Z" fill="#450694"/>
<path d="M10.0958 64.4539C15.5399 64.4365 19.9548 60.4747 19.9357 55.6211C19.9165 50.7675 15.4705 46.834 10.0263 46.8513C4.58069 46.8687 0.165788 50.8305 0.184943 55.6841C0.204099 60.5377 4.65016 64.4712 10.0958 64.4539ZM10.0372 49.6163C13.763 49.6044 16.8055 52.3031 16.8187 55.631C16.8318 58.959 13.8107 61.677 10.0849 61.6889C6.35756 61.7008 3.31509 59.0021 3.30196 55.6742C3.28882 52.3462 6.30992 49.6282 10.0372 49.6163Z" fill="#450694"/>
<path d="M25.3175 31.4692C25.3281 31.4692 25.3372 31.4692 25.3464 31.4691C27.99 31.454 30.4733 30.528 32.3388 28.86C34.2058 27.1934 35.2321 24.9841 35.2304 22.6389C35.2288 20.2924 34.1958 18.091 32.3233 16.4417C30.4569 14.7979 27.9801 13.8985 25.3456 13.9069C25.3349 13.9069 25.3258 13.9069 25.3166 13.907C22.673 13.9221 20.1897 14.8481 18.3242 16.5161C16.4572 18.1827 15.4309 20.392 15.4326 22.7372C15.4342 25.0837 16.4672 27.2851 18.3397 28.9344C20.2061 30.5783 22.6829 31.4776 25.3175 31.4692ZM20.5357 18.464C21.8643 17.2771 23.6108 16.6801 25.355 16.6746C27.0839 16.6691 28.8106 17.2441 30.1272 18.4037C32.7709 20.7323 32.7708 24.5491 30.1273 26.9121C27.4822 29.2765 23.1811 29.301 20.5358 26.9724C17.8921 24.6438 17.8922 20.827 20.5357 18.464Z" fill="#450694"/>
<path d="M36.901 16.2713C37.1583 16.2705 37.4184 16.2129 37.6585 16.0934C40.8919 14.4823 44.3244 13.185 47.8634 12.2383C48.6877 12.0184 49.1551 11.2475 48.9056 10.5167C48.6591 9.78595 47.7897 9.36894 46.9639 9.59293C43.2074 10.597 39.562 11.9732 36.1296 13.6849C35.379 14.0585 35.1128 14.9016 35.5356 15.567C35.8221 16.0196 36.3545 16.273 36.901 16.2713Z" fill="#450694"/>
<path d="M86.5335 15.6314C86.7699 15.7427 87.0228 15.7959 87.274 15.7951C87.8282 15.7933 88.3631 15.5297 88.6444 15.0659C89.0513 14.3937 88.7663 13.5565 88.0067 13.1944C84.5458 11.548 80.87 10.2369 77.0815 9.29742C76.257 9.08544 75.3939 9.51876 75.1609 10.2565C74.9293 10.9915 75.4134 11.7539 76.2424 11.9591C79.81 12.844 83.2724 14.0801 86.5335 15.6314Z" fill="#450694"/>
<path d="M111.159 42.2772C111.362 42.8775 111.983 43.263 112.655 43.2609C112.801 43.2604 112.952 43.241 113.099 43.2014C113.923 42.9814 114.39 42.2102 114.14 41.4792C113.009 38.1475 111.458 34.9144 109.53 31.8703C109.109 31.2032 108.157 30.9686 107.409 31.3437C106.659 31.7174 106.393 32.5608 106.815 33.2265C108.631 36.0942 110.092 39.1385 111.159 42.2772Z" fill="#450694"/>
<path d="M113.377 66.4815C112.555 66.2708 111.689 66.7043 111.458 67.4409C110.46 70.6052 109.067 73.6762 107.318 76.5687C106.912 77.2411 107.197 78.0788 107.956 78.4409C108.192 78.5522 108.444 78.6054 108.695 78.6046C109.249 78.6029 109.784 78.3392 110.065 77.8752C111.921 74.8054 113.399 71.5451 114.458 68.1848C114.689 67.4495 114.205 66.6868 113.377 66.4815Z" fill="#450694"/>
<path d="M87.462 94.5612C84.2286 96.1723 80.7961 97.4696 77.2571 98.4163C76.4328 98.6362 75.9654 99.4071 76.2149 100.138C76.4183 100.738 77.0394 101.123 77.7123 101.121C77.8585 101.121 78.0091 101.101 78.1567 101.062C81.9131 100.058 85.5585 98.6814 88.9909 96.9697C89.7415 96.5961 90.0077 95.753 89.5849 95.0876C89.1636 94.4222 88.2111 94.1876 87.462 94.5612Z" fill="#450694"/>
<path d="M38.5871 95.0232C37.829 94.6652 36.8845 94.9139 36.4761 95.5887C36.0692 96.2608 36.3542 97.0981 37.1138 97.4601C40.5748 99.1066 44.2506 100.418 48.0391 101.357C48.1808 101.393 48.324 101.409 48.4656 101.408C49.1446 101.406 49.7672 101.007 49.9597 100.398C50.1913 99.6631 49.7072 98.9007 48.8781 98.6954C45.3106 97.8106 41.8482 96.5744 38.5871 95.0232Z" fill="#450694"/>
<path d="M13.9618 68.3771C13.7155 67.646 12.8468 67.2302 12.0217 67.4529C11.198 67.673 10.731 68.4441 10.9803 69.1752C12.1116 72.5068 13.6623 75.7399 15.591 78.7841C15.8773 79.2369 16.4092 79.4904 16.9553 79.4886C17.2124 79.4878 17.4723 79.4303 17.7121 79.3107C18.4621 78.937 18.7281 78.0935 18.3056 77.4278C16.4901 74.5602 15.0284 71.5159 13.9618 68.3771Z" fill="#450694"/>
<path d="M15.056 32.7793C13.2001 35.849 11.7222 39.1093 10.6631 42.4696C10.4317 43.2049 10.9154 43.9676 11.7437 44.1729C11.8853 44.2089 12.0284 44.2247 12.1699 44.2242C12.8483 44.2221 13.4704 43.8231 13.6627 43.2135C14.6603 40.0492 16.0537 36.9782 17.8023 34.0857C18.2089 33.4133 17.9242 32.5757 17.1652 32.2135C16.4062 31.8581 15.4641 32.1042 15.056 32.7793Z" fill="#450694"/>
<path d="M72.3328 8.91329C72.3137 4.08266 67.8479 0.166731 62.3764 0.18418C56.9048 0.201628 52.47 4.14594 52.4891 8.97657C52.5082 13.8059 56.974 17.7218 62.4455 17.7043C67.9171 17.6869 72.3518 13.7426 72.3328 8.91329ZM55.6061 8.96663C55.5931 5.66026 58.6356 2.96113 62.3873 2.94917C66.139 2.93721 69.2027 5.61686 69.2158 8.92323C69.2288 12.2283 66.1863 14.9274 62.4346 14.9393C58.6829 14.9513 55.6192 12.2717 55.6061 8.96663Z" fill="#F5F5DC"/>
<path d="M109.477 22.4582C109.46 20.1131 108.417 17.9104 106.537 16.2557C104.658 14.5997 102.167 13.6896 99.5238 13.6913C99.5146 13.6913 99.5055 13.6913 99.4949 13.6914C96.8603 13.6998 94.3907 14.6149 92.5373 16.2707C90.6779 17.9318 89.6623 20.1398 89.6792 22.4862C89.696 24.8313 90.7397 27.0341 92.6198 28.6887C94.4984 30.3447 96.9889 31.2549 99.6327 31.2532C99.6418 31.2532 99.6509 31.2531 99.6616 31.2531C102.296 31.2447 104.766 30.3295 106.619 28.6738C108.479 27.0126 109.494 24.8047 109.477 22.4582ZM104.408 26.7259C101.782 29.0713 97.4811 29.0742 94.8159 26.7268C92.1538 24.3807 92.1235 20.564 94.7489 18.2186C96.0562 17.0506 97.7783 16.4646 99.5073 16.4591C101.251 16.4535 103.003 17.0393 104.341 18.2177C107.003 20.5638 107.033 24.3805 104.408 26.7259Z" fill="#F5F5DC"/>
<path d="M115.026 46.546C109.582 46.5634 105.167 50.5252 105.186 55.3788C105.205 60.2324 109.651 64.166 115.095 64.1486C120.541 64.1312 124.956 60.1694 124.937 55.3158C124.917 50.4622 120.471 46.5287 115.026 46.546ZM115.084 61.3836C111.358 61.3955 108.316 58.6968 108.303 55.3689C108.29 52.0409 111.311 49.3229 115.037 49.311C118.764 49.2991 121.806 51.9978 121.82 55.3258C121.833 58.6537 118.812 61.3717 115.084 61.3836Z" fill="#F5F5DC"/>
<path d="M99.8041 79.5308C99.7934 79.5308 99.7843 79.5308 99.7751 79.5309C97.1315 79.5461 94.6482 80.472 92.7827 82.14C90.9157 83.8066 89.8894 86.0159 89.8911 88.3611C89.8927 90.7076 90.9257 92.909 92.7982 94.5583C94.6646 96.2022 97.1414 97.1015 99.776 97.0931C99.7866 97.0931 99.7957 97.0931 99.8049 97.093C102.449 97.0779 104.932 96.1519 106.797 94.4839C108.664 92.8173 109.691 90.608 109.689 88.2628C109.687 85.9163 108.654 83.7149 106.782 82.0656C104.915 80.4218 102.439 79.5224 99.8041 79.5308ZM104.586 92.536C101.939 94.899 97.6381 94.9263 94.9943 92.5963C92.3506 90.2677 92.3507 86.4509 94.9942 84.0879C96.3228 82.901 98.0693 82.304 99.8135 82.2985C101.542 82.293 103.269 82.868 104.586 84.0276C107.229 86.3562 107.229 90.173 104.586 92.536Z" fill="#F5F5DC"/>
<path d="M52.7887 102.087C52.8077 106.917 57.2735 110.833 62.7451 110.816C68.2166 110.798 72.6514 106.854 72.6323 102.024C72.6133 97.1942 68.1475 93.2783 62.6759 93.2958C57.2044 93.3132 52.7696 97.2575 52.7887 102.087ZM69.5153 102.033C69.5284 105.34 66.4859 108.039 62.7342 108.051C58.9825 108.063 55.9187 105.383 55.9057 102.077C55.8926 98.7718 58.9351 96.0727 62.6868 96.0607C66.4385 96.0488 69.5023 98.7284 69.5153 102.033Z" fill="#F5F5DC"/>
<path d="M15.6442 88.5418C15.6611 90.8869 16.7048 93.0896 18.5849 94.7443C20.4635 96.4003 22.954 97.3104 25.5977 97.3087C25.6069 97.3087 25.616 97.3087 25.6267 97.3086C28.2612 97.3002 30.7309 96.3851 32.5842 94.7293C34.4436 93.0682 35.4592 90.8602 35.4424 88.5138C35.4255 86.1687 34.3818 83.9659 32.5017 82.3113C30.6231 80.6553 28.1326 79.7451 25.4889 79.7468C25.4797 79.7468 25.4706 79.7469 25.4599 79.7469C22.8254 79.7553 20.3557 80.6705 18.5024 82.3262C16.643 83.9874 15.6274 86.1953 15.6442 88.5418ZM20.7139 84.2741C22.0213 83.1062 23.7434 82.5201 25.4724 82.5146C27.2166 82.509 28.9677 83.0948 30.3056 84.2732C32.9677 86.6193 32.998 90.436 30.3727 92.7814C27.7458 95.1282 23.4446 95.1284 20.781 92.7823C18.1189 90.4362 18.0886 86.6195 20.7139 84.2741Z" fill="#F5F5DC"/>
<path d="M10.0958 64.4539C15.5399 64.4365 19.9548 60.4747 19.9357 55.6211C19.9165 50.7675 15.4705 46.834 10.0263 46.8513C4.58069 46.8687 0.165788 50.8305 0.184943 55.6841C0.204099 60.5377 4.65016 64.4712 10.0958 64.4539ZM10.0372 49.6163C13.763 49.6044 16.8055 52.3031 16.8187 55.631C16.8318 58.959 13.8107 61.677 10.0849 61.6889C6.35756 61.7008 3.31509 59.0021 3.30196 55.6742C3.28882 52.3462 6.30992 49.6282 10.0372 49.6163Z" fill="#F5F5DC"/>
<path d="M25.3175 31.4692C25.3281 31.4692 25.3372 31.4692 25.3464 31.4691C27.99 31.454 30.4733 30.528 32.3388 28.86C34.2058 27.1934 35.2321 24.9841 35.2304 22.6389C35.2288 20.2924 34.1958 18.091 32.3233 16.4417C30.4569 14.7979 27.9801 13.8985 25.3456 13.9069C25.3349 13.9069 25.3258 13.9069 25.3166 13.907C22.673 13.9221 20.1897 14.8481 18.3242 16.5161C16.4572 18.1827 15.4309 20.392 15.4326 22.7372C15.4342 25.0837 16.4672 27.2851 18.3397 28.9344C20.2061 30.5783 22.6829 31.4776 25.3175 31.4692ZM20.5357 18.464C21.8643 17.2771 23.6108 16.6801 25.355 16.6746C27.0839 16.6691 28.8106 17.2441 30.1272 18.4037C32.7709 20.7323 32.7708 24.5491 30.1273 26.9121C27.4822 29.2765 23.1811 29.301 20.5358 26.9724C17.8921 24.6438 17.8922 20.827 20.5357 18.464Z" fill="#F5F5DC"/>
<path d="M36.901 16.2713C37.1583 16.2705 37.4184 16.2129 37.6585 16.0934C40.8919 14.4823 44.3244 13.185 47.8634 12.2383C48.6877 12.0184 49.1551 11.2475 48.9056 10.5167C48.6591 9.78595 47.7897 9.36894 46.9639 9.59293C43.2074 10.597 39.562 11.9732 36.1296 13.6849C35.379 14.0585 35.1128 14.9016 35.5356 15.567C35.8221 16.0196 36.3545 16.273 36.901 16.2713Z" fill="#F5F5DC"/>
<path d="M86.5335 15.6314C86.7699 15.7427 87.0228 15.7959 87.274 15.7951C87.8282 15.7933 88.3631 15.5297 88.6444 15.0659C89.0513 14.3937 88.7663 13.5565 88.0067 13.1944C84.5458 11.548 80.87 10.2369 77.0815 9.29742C76.257 9.08544 75.3939 9.51876 75.1609 10.2565C74.9293 10.9915 75.4134 11.7539 76.2424 11.9591C79.81 12.844 83.2724 14.0801 86.5335 15.6314Z" fill="#F5F5DC"/>
<path d="M111.159 42.2772C111.362 42.8775 111.983 43.263 112.655 43.2609C112.801 43.2604 112.952 43.241 113.099 43.2014C113.923 42.9814 114.39 42.2102 114.14 41.4792C113.009 38.1475 111.458 34.9144 109.53 31.8703C109.109 31.2032 108.157 30.9686 107.409 31.3437C106.659 31.7174 106.393 32.5608 106.815 33.2265C108.631 36.0942 110.092 39.1385 111.159 42.2772Z" fill="#F5F5DC"/>
<path d="M113.377 66.4815C112.555 66.2708 111.689 66.7043 111.458 67.4409C110.46 70.6052 109.067 73.6762 107.318 76.5687C106.912 77.2411 107.197 78.0788 107.956 78.4409C108.192 78.5522 108.444 78.6054 108.695 78.6046C109.249 78.6029 109.784 78.3392 110.065 77.8752C111.921 74.8054 113.399 71.5451 114.458 68.1848C114.689 67.4495 114.205 66.6868 113.377 66.4815Z" fill="#F5F5DC"/>
<path d="M87.462 94.5612C84.2286 96.1723 80.7961 97.4696 77.2571 98.4163C76.4328 98.6362 75.9654 99.4071 76.2149 100.138C76.4183 100.738 77.0394 101.123 77.7123 101.121C77.8585 101.121 78.0091 101.101 78.1567 101.062C81.9131 100.058 85.5585 98.6814 88.9909 96.9697C89.7415 96.5961 90.0077 95.753 89.5849 95.0876C89.1636 94.4222 88.2111 94.1876 87.462 94.5612Z" fill="#F5F5DC"/>
<path d="M38.5871 95.0232C37.829 94.6652 36.8845 94.9139 36.4761 95.5887C36.0692 96.2608 36.3542 97.0981 37.1138 97.4601C40.5748 99.1066 44.2506 100.418 48.0391 101.357C48.1808 101.393 48.324 101.409 48.4656 101.408C49.1446 101.406 49.7672 101.007 49.9597 100.398C50.1913 99.6631 49.7072 98.9007 48.8781 98.6954C45.3106 97.8106 41.8482 96.5744 38.5871 95.0232Z" fill="#F5F5DC"/>
<path d="M13.9618 68.3771C13.7155 67.646 12.8468 67.2302 12.0217 67.4529C11.198 67.673 10.731 68.4441 10.9803 69.1752C12.1116 72.5068 13.6623 75.7399 15.591 78.7841C15.8773 79.2369 16.4092 79.4904 16.9553 79.4887C17.2124 79.4878 17.4723 79.4303 17.7121 79.3107C18.4621 78.937 18.7281 78.0935 18.3056 77.4278C16.4901 74.5602 15.0284 71.5159 13.9618 68.3771Z" fill="#F5F5DC"/>
<path d="M15.056 32.7793C13.2001 35.849 11.7222 39.1093 10.6631 42.4696C10.4317 43.2049 10.9154 43.9676 11.7437 44.1729C11.8853 44.2089 12.0284 44.2247 12.1699 44.2242C12.8483 44.2221 13.4704 43.8231 13.6627 43.2135C14.6603 40.0492 16.0537 36.9782 17.8023 34.0857C18.2089 33.4133 17.9242 32.5757 17.1652 32.2135C16.4062 31.8581 15.4641 32.1042 15.056 32.7793Z" fill="#F5F5DC"/>
<path d="M37.6419 77.0975C38.1823 77.6599 38.9734 77.9833 39.8101 77.9833L85.8347 77.9833C86.6767 77.9833 87.4705 77.6575 88.0109 77.0891C88.5486 76.5255 88.7766 75.7859 88.6385 75.0606L85.596 59.1505L85.596 35.7266C85.596 33.7421 83.763 32.1285 81.5103 32.1285L43.9897 32.1285C41.737 32.1285 39.904 33.7421 39.904 35.7266L39.904 59.1576L37.0037 75.0796C36.8722 75.8038 37.1056 76.5386 37.6419 77.0975ZM42.4462 60.4733L50.7784 60.4733L50.1207 66.3888L41.3687 66.3888L42.4462 60.4733ZM53.5375 60.4733L61.5284 60.4733L61.5284 66.3888L52.8798 66.3888L53.5375 60.4733ZM61.5284 68.824L61.5284 75.5055L51.8681 75.4886L52.609 68.824L61.5284 68.824ZM64.2746 68.824L73.1926 68.824L73.9379 75.5272L64.2746 75.5103L64.2746 68.824ZM64.2746 66.3888L64.2746 60.4733L72.2642 60.4733L72.9219 66.3888L64.2746 66.3888ZM75.0233 60.4733L83.0556 60.4733L84.1462 66.3888L75.681 66.3888L75.0233 60.4733ZM82.8499 58.0381L42.6501 58.0381L42.6501 40.9834L82.8499 40.9834L82.8499 58.0381ZM39.7149 75.4673L40.9251 68.824L49.8499 68.824L49.1094 75.4838L39.7149 75.4673ZM76.6976 75.5321L75.9518 68.824L84.5951 68.824L85.8347 75.5481L76.6976 75.5321ZM43.9897 34.5637L81.5103 34.5637C82.2491 34.5637 82.8499 35.0857 82.8499 35.7266L82.8499 38.5483L42.6501 38.5483L42.6501 35.7266C42.6501 35.0857 43.2508 34.5637 43.9897 34.5637Z" fill="#F5F5DC"/>
<path d="M135.401 55.4308H138.127C140.311 55.4308 142.051 55.5275 143.347 55.7208C144.642 55.8948 145.783 56.4555 146.769 57.4028C147.774 58.3501 148.277 59.8678 148.277 61.9558C148.277 63.8505 147.851 65.2908 147.001 66.2768C146.169 67.2435 145.135 67.8815 143.898 68.1908C142.68 68.4808 141.268 68.6258 139.664 68.6258V77.0068L135.401 77.3548V55.4308ZM140.418 65.1748C141.539 65.1748 142.419 64.9428 143.057 64.4788C143.714 64.0148 144.043 63.1641 144.043 61.9268C144.043 60.7088 143.743 59.8871 143.144 59.4618C142.544 59.0365 141.597 58.8238 140.302 58.8238H139.693V65.1748H140.418ZM155.909 77.5578C153.957 77.5578 152.449 76.7845 151.385 75.2378C150.341 73.6911 149.819 71.6321 149.819 69.0608C149.819 66.5088 150.341 64.4691 151.385 62.9418C152.429 61.4145 153.937 60.6508 155.909 60.6508C157.862 60.6508 159.37 61.4145 160.433 62.9418C161.516 64.4691 162.057 66.5088 162.057 69.0608C162.057 71.6128 161.516 73.6718 160.433 75.2378C159.37 76.7845 157.862 77.5578 155.909 77.5578ZM155.909 74.5418C156.779 74.5418 157.34 74.0101 157.591 72.9468C157.843 71.8835 157.968 70.5785 157.968 69.0318C157.968 67.4851 157.843 66.1801 157.591 65.1168C157.34 64.0535 156.779 63.5218 155.909 63.5218C155.039 63.5218 154.488 64.0245 154.256 65.0298C154.024 66.0351 153.908 67.2628 153.908 68.7128C153.908 70.4915 154.024 71.9125 154.256 72.9758C154.488 74.0198 155.039 74.5418 155.909 74.5418ZM164.819 61.2018L168.879 60.8538V63.4928C169.459 62.6615 170.175 61.9945 171.025 61.4918C171.895 60.9698 172.997 60.7088 174.331 60.7088V64.6818C173.635 64.6818 172.717 64.8075 171.576 65.0588C170.455 65.2908 169.556 65.7065 168.879 66.3058V77.0068L164.819 77.3548V61.2018ZM182.112 77.4998C180.797 77.4998 179.686 77.1711 178.777 76.5138C177.868 75.8371 177.414 74.6481 177.414 72.9468V63.9278H175.152L175.326 60.8538H177.53L177.936 57.3158L181.474 56.8228V60.8538H184.838L184.664 63.9278H181.503V72.9178C181.503 73.4978 181.648 73.9135 181.938 74.1648C182.228 74.4161 182.653 74.5418 183.214 74.5418C183.523 74.5418 184.045 74.4838 184.78 74.3678V77.1808C184.703 77.2001 184.393 77.2581 183.852 77.3548C183.33 77.4515 182.75 77.4998 182.112 77.4998ZM187.777 63.9278H185.776L185.921 60.8538H187.777V60.5638C187.777 59.4231 187.845 58.5048 187.98 57.8088C188.135 57.0935 188.502 56.4941 189.082 56.0108C189.681 55.5275 190.6 55.2858 191.837 55.2858C193.016 55.2858 193.935 55.4308 194.592 55.7208V58.1568H193.693C192.92 58.1568 192.417 58.3695 192.185 58.7948C191.972 59.2201 191.866 59.8098 191.866 60.5638V60.8538H194.737L194.563 63.9278H191.866V77.0068L187.777 77.3548V63.9278ZM202.1 77.5578C200.147 77.5578 198.639 76.7845 197.576 75.2378C196.532 73.6911 196.01 71.6321 196.01 69.0608C196.01 66.5088 196.532 64.4691 197.576 62.9418C198.62 61.4145 200.128 60.6508 202.1 60.6508C204.053 60.6508 205.561 61.4145 206.624 62.9418C207.707 64.4691 208.248 66.5088 208.248 69.0608C208.248 71.6128 207.707 73.6718 206.624 75.2378C205.561 76.7845 204.053 77.5578 202.1 77.5578ZM202.1 74.5418C202.97 74.5418 203.531 74.0101 203.782 72.9468C204.033 71.8835 204.159 70.5785 204.159 69.0318C204.159 67.4851 204.033 66.1801 203.782 65.1168C203.531 64.0535 202.97 63.5218 202.1 63.5218C201.23 63.5218 200.679 64.0245 200.447 65.0298C200.215 66.0351 200.099 67.2628 200.099 68.7128C200.099 70.4915 200.215 71.9125 200.447 72.9758C200.679 74.0198 201.23 74.5418 202.1 74.5418ZM211.039 77.3548V55.9528L215.099 55.4308V77.0068L211.039 77.3548ZM218.657 58.7658V54.5608L222.717 54.2708V58.5918L218.657 58.7658ZM218.628 77.3548V61.2018L222.688 60.8538V77.0068L218.628 77.3548ZM231.553 77.5578C229.6 77.5578 228.092 76.7845 227.029 75.2378C225.985 73.6911 225.463 71.6321 225.463 69.0608C225.463 66.5088 225.985 64.4691 227.029 62.9418C228.073 61.4145 229.581 60.6508 231.553 60.6508C233.506 60.6508 235.014 61.4145 236.077 62.9418C237.16 64.4691 237.701 66.5088 237.701 69.0608C237.701 71.6128 237.16 73.6718 236.077 75.2378C235.014 76.7845 233.506 77.5578 231.553 77.5578ZM231.553 74.5418C232.423 74.5418 232.984 74.0101 233.235 72.9468C233.486 71.8835 233.612 70.5785 233.612 69.0318C233.612 67.4851 233.486 66.1801 233.235 65.1168C232.984 64.0535 232.423 63.5218 231.553 63.5218C230.683 63.5218 230.132 64.0245 229.9 65.0298C229.668 66.0351 229.552 67.2628 229.552 68.7128C229.552 70.4915 229.668 71.9125 229.9 72.9758C230.132 74.0198 230.683 74.5418 231.553 74.5418Z" fill="#CBCBCB"/>
</svg>
